# xmcd
#
# Track frame offsets:
#	150
#	34697
#	46255
#	63109
#	75754
#	99316
#	114622
#	130598
#	148169
#	166854
#
# Disc length: 2514 seconds
#
# Revision: 12
# Processed by: cddbd v1.5.2PL0 Copyright (c) Steve Scherf et al.
# Submitted via: Jack! The Knife 20 Magnifico
#
DISCID=7109d00a
DTITLE=Venom - The Waste Lands
DYEAR=1992
DGENRE=Black Metal
TTITLE0=Cursed
TTITLE1=I'm Paralysed
TTITLE2=Black Legions
TTITLE3=Riddle Of Steel
TTITLE4=Need To Kill
TTITLE5=Kissing The Beast
TTITLE6=Crucified
TTITLE7=Shadow King
TTITLE8=Wolverine
TTITLE9=Clarisse
EXTD=Kevin Ridley
EXTT0=Bray, Dolan, Dunn
EXTT1=Bray, Dolan, Dunn
EXTT2=Bray, Dolan, Dunn
EXTT3=Bray, Dolan, Dunn
EXTT4=Bray, Dolan, Dunn
EXTT5=Bray, Dolan, Dunn
EXTT6=Bray, Dolan, Dunn
EXTT7=Bray, Dolan, Dunn
EXTT8=Bray, Dolan, Dunn
EXTT9=Bray, Dolan, Dunn
PLAYORDER=
